<svg width="24" height="24" fill="none" xmlns="http://www.w3.org/2000/svg"><path fill-rule="evenodd" clip-rule="evenodd" d="M13.49 3C9.97-.5 4.77-1 1.88 1.88-1.02 4.77-.51 9.98 3 13.49a10.6 10.6 0 0 0 3.15 2.17 11.6 11.6 0 0 1 3.07-5.97c-.54-.2-1.09-.36-1.66-.52-3.41-.93-5.1-3.78-5.5-7.11.32.39.62.8.92 1.22.58.8 1.15 1.59 1.93 2.23 1.2 1 2.54 1.38 3.99 1.8l.17.05c.69.2 1.28.5 1.83.84a11.35 11.35 0 0 1 4.75-2.05A10.57 10.57 0 0 0 13.5 3ZM7.55 16.5c.22-2.17 1.27-4.3 2.96-5.99 3.51-3.5 8.72-4.02 11.61-1.12 2.9 2.89 2.39 8.1-1.12 11.61A10.03 10.03 0 0 1 14.15 24a6.61 6.61 0 0 1-4.76-1.89 6.77 6.77 0 0 1-1.84-5.62Zm5.14 1.78c1.15-.88 2.4-1.22 3.75-1.6 3.41-.93 5.1-3.78 5.5-7.11-.32.39-.62.8-.91 1.2-.58.81-1.16 1.6-1.94 2.25-1.21 1-2.54 1.38-4 1.8l-.16.05c-3.34.97-4.99 3.8-5.37 7.08.33-.4.63-.8.93-1.22a11.4 11.4 0 0 1 2.2-2.45Z" fill="#0A775F"/></svg>
