<svg width="140" height="144" fill="none" xmlns="http://www.w3.org/2000/svg"><path d="m131.85 48-6.16-22.8-25.36 6.9-2.22-14.37-4.67 9.31c-.44 0-.88-.01-1.32-.04l-14-27-20.85 10.89L70.41 14l-14.86 7.77-2.98-.5a15.24 15.24 0 0 0-4.34-2.23l-16.2-5.46L25.97 5l-12.7 38.17L0 48.56l9 5.52 8.11 20.15-2.65 10.24 14.58-5.91L15.57 89.2l10.18 2.77 13.4 17.08.12 4.45c-.11.15-.23.29-.33.44a18.3 18.3 0 0 0-3.01 7.15c-.43 2.45-.35 4.88.23 7.22a18.8 18.8 0 0 0 3.09 6.5 22.5 22.5 0 0 0 5.43 5.23 21.83 21.83 0 0 0 7.45 3.46 16.23 16.23 0 0 0 13.1-2.25 17.27 17.27 0 0 0 4.47-4.48c2.16-3.17 3.25-6.35 3.23-9.44 0-.45-.02-.9-.06-1.36l3.35 1.32-2.21 3.24 10.14-.4 17.6-.7-6.45-8.02-.18-4.5.36-.02 7.65 2.88-.37-9 3.45 3.56.54 1.38-2.63 9.95 29.53-11.8a7.3 7.3 0 0 0 5.78-4.6 7.57 7.57 0 0 0-10.06-9.78l-1.48-3.73a7.51 7.51 0 0 0 5.58-3.95l.8-3.2c0-1-.19-1.98-.56-2.91a7.2 7.2 0 0 0-6.7-4.58l1.04-16.43 5.25-1.43-2.8-2.25c.2-.34.38-.7.57-1.07a13.26 13.26 0 0 0 1.33-6.05 7.52 7.52 0 0 0-4.58-6.93 7.7 7.7 0 0 0-5.45-.26l-1.7-6.3 11.18 7.6Z" fill="#000"/><path d="M66.42 121.55c1.6 1.88 2.41 4 2.42 6.36.01 2.35-.85 4.8-2.6 7.36a13.42 13.42 0 0 1-3.52 3.53c-1.4.95-2.96 1.6-4.68 1.92a13.6 13.6 0 0 1-5.56-.2 18.27 18.27 0 0 1-6.2-2.91 18.7 18.7 0 0 1-4.56-4.37 15.08 15.08 0 0 1-2.5-5.24 13.47 13.47 0 0 1-.18-5.69 14.64 14.64 0 0 1 3.73-7.34c.43-.45.87-.88 1.33-1.3.43-.38.83-.74 1.18-1.08.36-.33.65-.66.88-.99.19-.27.33-.62.43-1.04.1-.42.1-.75.01-1l9.96 6.86a14.9 14.9 0 0 0-6.1-.96c-1.01.06-2 .3-2.93.69a4.93 4.93 0 0 0-3.03 4.31 6.5 6.5 0 0 0 .64 2.98 12.41 12.41 0 0 0 2.24 3.25 23.23 23.23 0 0 0 3.96 3.34c1.36.94 2.7 1.68 4.02 2.22 1.32.53 2.55.85 3.7.95 1.13.1 2.17-.04 3.1-.4a4.9 4.9 0 0 0 2.31-1.87 7.6 7.6 0 0 0 1.48-4.24c0-1.4-.46-2.9-1.42-4.49l1.9-.66Z" fill="#fff"/><path d="M81.33 103.38c.46 2.23.58 4.34.34 6.34-.23 2-.78 3.78-1.63 5.36a12.36 12.36 0 0 1-8.58 6.26 12.32 12.32 0 0 1-10.37-2.26 14.85 14.85 0 0 1-3.66-4.25 19.49 19.49 0 0 1-2.23-5.94c-.48-2.25-.6-4.38-.36-6.37.24-2 .79-3.79 1.64-5.37a12.08 12.08 0 0 1 3.46-3.98 12.97 12.97 0 0 1 5.13-2.23c1.98-.42 3.84-.43 5.6-.03 1.73.39 3.36 1.16 4.76 2.25a14.77 14.77 0 0 1 3.66 4.24 19.76 19.76 0 0 1 2.24 5.98ZM64.17 107c.36 1.71.78 3.25 1.25 4.61.48 1.36 1 2.5 1.54 3.42a6.27 6.27 0 0 0 1.76 2.01c.62.42 1.26.56 1.92.42a2.43 2.43 0 0 0 1.58-1.16c.4-.63.68-1.48.82-2.55.16-1.07.18-2.32.06-3.76a37.63 37.63 0 0 0-.71-4.72c-.37-1.75-.79-3.3-1.26-4.66-.48-1.36-1-2.5-1.56-3.42a6.47 6.47 0 0 0-1.79-2 2.41 2.41 0 0 0-1.91-.42c-.66.14-1.19.53-1.58 1.16-.4.64-.67 1.49-.8 2.55a18.43 18.43 0 0 0-.04 3.75c.12 1.44.36 3.02.72 4.77Z" fill="#fff"/><path d="m98.43 102.1-8.03.33.29 6.95 4.72-.19 3.1-1.46.3 7.27-3.21-1.2-4.73.19.39 9.34 2.66 3.31-13.3.53 2.39-3.5-.93-22.61-2.66-3.31 21.97-.88.35 8.66-3.31-3.43Zm24.11-14.7-3.22-2.74-22.49-1.46-3.55 2.3 1.42-22.3 8.6.56-3.72 2.95-.52 8.32 6.91.45.3-4.78-1.13-3.21 7.24.47-1.53 3.04-.3 4.78 7.55.5.52-8.34-3.32-3.4 8.66.56-1.42 22.3Z" fill="#fff"/><path d="m109.03 120.16 1.08-4.11-8.35-21.03-3.6-2.23 20.67-8.26 3.2 8.05-4.25-2.12-7.72 3.08 2.57 6.47 4.44-1.77 2.4-2.4 2.69 6.76-3.4-.08-4.43 1.77 2.81 7.07 7.71-3.09 1.64-4.47 3.21 8.1-20.67 8.25ZM77.53 73.4l-1.83 7.85 6.75 1.6 1.07-4.62-.57-3.4 7.06 1.67-2.02 2.79-1.07 4.62 9.07 2.14 3.88-1.68-3.04 13-2.73-3.24-21.93-5.2-3.89 1.7 5.01-21.5 8.4 1.99-4.16 2.28Zm-35.37 6.57-6.73 5.32 4.58 5.83L43.97 88l1.78-3.22 4.79 6.1-3.53.98-3.96 3.13 6.15 7.85 4.36 1.19-11.15 8.82-.13-4.53-14.89-18.98-4.36-1.19L41.45 73.6l5.7 7.27-4.99-.88Z" fill="#fff"/><path d="m60.05 93.2-.94-4.44-18-15.95-4.53-.42 9.61-10.94 1 4.43 18 15.95 4.47.42-9.61 10.94Z" fill="#fff"/><path d="M76.88 47c.27 1.15.36 2.24.25 3.3a8.72 8.72 0 0 1-.79 2.92 8.2 8.2 0 0 1-3.95 3.94l.08.34c.47-.01.95.08 1.45.28a9.64 9.64 0 0 1 3.33 2.27l2.85 3.98a3.9 3.9 0 0 0 1.87 1.32c.73.23 1.56.12 2.49-.34a4 4 0 0 1-.73 1.62c-.36.47-.8.89-1.3 1.22a10.86 10.86 0 0 1-3.26 1.4c-1.56.37-2.9.47-4.06.28a5.11 5.11 0 0 1-3.16-2.1l-4.16-5.48c-.4-.52-.92-.91-1.6-1.2a3.04 3.04 0 0 0-1.9-.2L66 67.83l3.45 2.91-13.86 3.3 1.79-4.17-5.56-23.5-3.45-2.91 12.95-3.08c1.88-.44 3.67-.63 5.4-.57 1.73.06 3.29.37 4.67.94a9.46 9.46 0 0 1 3.52 2.42A8.42 8.42 0 0 1 76.88 47Zm-8.85 2.35a7.08 7.08 0 0 0-1.31-2.92 5.48 5.48 0 0 0-1.95-1.53 4.9 4.9 0 0 0-2.19-.44c-.75.03-1.41.16-2 .4l2.66 11.2c.8 0 1.55-.13 2.24-.41a4.37 4.37 0 0 0 2.7-3.37c.16-.84.12-1.81-.15-2.93Z" fill="#fff"/><path d="M101.63 52.52a8.7 8.7 0 0 1-2.67 8c-1.01.97-2.18 1.75-3.5 2.34-1.33.58-2.66.98-3.98 1.18-1.1.17-2.12.27-3.08.3-.87.03-1.75.05-2.62.04l-2.2-.04a10.5 10.5 0 0 0-1.8.1c-.22.04-.46.16-.71.37-.25.2-.45.43-.61.69l-2.2-14.24a12.79 12.79 0 0 0 1.95 3.5c.85 1.09 1.78 2.01 2.79 2.78 1 .77 2.04 1.36 3.09 1.76 1.05.4 2.04.53 2.98.39.6-.1 1.17-.22 1.75-.4a6.06 6.06 0 0 0 1.46-.64c.42-.27.74-.6.96-1 .22-.4.28-.87.2-1.42a4.51 4.51 0 0 0-1.05-2.3 7.3 7.3 0 0 0-2.17-1.68c-.88-.46-1.89-.85-3.03-1.18a38.8 38.8 0 0 0-3.64-.83 10.68 10.68 0 0 1-5.11-2.44c-1.47-1.27-2.39-3.11-2.76-5.54a7.53 7.53 0 0 1 .35-3.84 9.3 9.3 0 0 1 2.07-3.25c.94-.98 2.1-1.8 3.46-2.45a15.95 15.95 0 0 1 4.52-1.37 19.3 19.3 0 0 1 4.75-.2c1.46.15 2.69.14 3.69-.01.22-.04.46-.16.7-.36.26-.2.45-.44.57-.69l1.8 11.67a8.23 8.23 0 0 0-1.81-2.63c-.8-.78-1.7-1.46-2.67-2-.94-.54-1.96-.93-3.02-1.18a7.81 7.81 0 0 0-2.92-.14 6.78 6.78 0 0 0-2.97 1.15c-.82.6-1.17 1.3-1.04 2.1.1.62.5 1.12 1.22 1.5.72.4 1.6.75 2.66 1.06 1.06.32 2.22.64 3.5.95 1.25.32 2.49.72 3.7 1.2 2.07.84 3.74 1.93 4.98 3.28a10.03 10.03 0 0 1 2.41 5.47Zm-60.29 5.3c1.4 3.49 1.29 6.59-.37 9.3-1.65 2.7-4.67 4.94-9.06 6.72l-12.57 5.1 1.13-4.39-9.01-22.39L7.6 49.8l11.8-4.78c1.15-.47 2.42-.91 3.8-1.33 1.37-.41 2.7-.66 4-.74a8.58 8.58 0 0 1 3.47.44 3.75 3.75 0 0 1 2.23 2.26c.23.55.33 1.16.29 1.76-.04.6-.18 1.18-.41 1.73-.24.57-.57 1.1-.98 1.57-.42.48-.9.9-1.42 1.26l.07.18a7.62 7.62 0 0 1 2.37-.16 10.72 10.72 0 0 1 6.22 2.55c.98.8 1.75 1.9 2.3 3.27Zm-16.7-7.93a2.03 2.03 0 0 0-.8-.98 2.99 2.99 0 0 0-1.2-.44 3.56 3.56 0 0 0-1.41.1c-.5.12-.98.32-1.43.57l1.89 4.7a5.53 5.53 0 0 0 2.55-1.65c.6-.71.73-1.48.4-2.3Zm8.3 11.7a7.8 7.8 0 0 0-1.42-2.27 6.17 6.17 0 0 0-4.9-2.13 7.69 7.69 0 0 0-3.22.9l5.25 13.03a8.96 8.96 0 0 0 2.93-1.82 6.29 6.29 0 0 0 1.96-5.02 8.37 8.37 0 0 0-.6-2.7Z" fill="#fff"/><path d="m120.28 36.6-4.68 1.28 5.8 21.45 3.57 2.85-13.84 3.77 1.68-4.28L107 40.2l-4.68 1.27-2.62 5.5-2.65-9.78 25.6-6.96 2.65 9.78-5.03-3.41Zm-91-19.37 17.33 5.83c1.73.59 3.12 1.4 4.15 2.41a9.5 9.5 0 0 1 2.92 6.95 10.73 10.73 0 0 1-.5 3.28l-.86 2.61a16.22 16.22 0 0 1-2.03 4.15 10.09 10.09 0 0 1-3 2.9 8.93 8.93 0 0 1-4.05 1.28 12.7 12.7 0 0 1-5.07-.76L21.6 40.3l-4.29 1.4 4.65-13.93 2.58 3.72 16.94 5.71c1.12.38 2.08.58 2.88.6.8.04 1.47-.09 2.02-.35.55-.25 1.01-.65 1.35-1.15a7.54 7.54 0 0 0 1.2-3.71c.02-.6-.12-1.18-.4-1.7a4.55 4.55 0 0 0-1.38-1.47 9.24 9.24 0 0 0-2.46-1.2l-17.14-5.77-4.29 1.4 3.43-10.3 2.6 3.68Zm106.34 88.27c.39.97.38 1.96-.02 2.97a3.65 3.65 0 0 1-2.1 2.13 3.88 3.88 0 0 1-2.96-.07c-.45-.22-.88-.5-1.24-.86a3.6 3.6 0 0 1-1.12-2.78c.02-.5.12-1 .3-1.47a3.9 3.9 0 0 1 2.09-2.12c.47-.2.98-.28 1.5-.26a3.89 3.89 0 0 1 3.55 2.46Z" fill="#fff"/><path d="m81.68 28.13-2.24-4.32L59.8 34.06l-2 4.1-6.64-12.78 4.52.74 19.63-10.25-2.24-4.32-5.91-1.4 8.94-4.67 12.27 23.65-8.95 4.67 2.25-5.67Zm46.62 26.32a9.8 9.8 0 0 1-.94 4.42 11.04 11.04 0 0 1-1.96 2.9.8.8 0 0 1-.6.23.5.5 0 0 1-.38-.17c-.1-.12-.12-.29-.05-.52.1-.26.2-.58.32-.95.11-.38.17-.71.17-1 0-.34-.06-.62-.2-.85-.12-.23-.41-.31-.87-.25a2.65 2.65 0 0 1-2.5-.96 4.29 4.29 0 0 1-.97-2.89c0-1.05.38-1.95 1.13-2.72a3.79 3.79 0 0 1 2.84-1.15 3.96 3.96 0 0 1 2.9 1.2 3.77 3.77 0 0 1 1.12 2.71Zm1.58 33.19a3.69 3.69 0 0 1-2.08 4.85 3.7 3.7 0 0 1-4.88-2.03 3.71 3.71 0 0 1 2.12-4.82c1.96-.8 4.08.1 4.84 2Zm-6.09 2.46a2.83 2.83 0 0 0 3.74 1.65c1.48-.6 2.1-2.25 1.5-3.74-.62-1.52-2.2-2.3-3.71-1.69a2.85 2.85 0 0 0-1.53 3.78Zm2.8.94-.78.32-1.37-3.4c.28-.2.7-.4 1.26-.63.64-.26.97-.28 1.28-.23.24.07.5.28.63.61.15.37-.02.78-.39 1.07l.02.04c.38 0 .67.17.95.58.31.48.46.66.6.75l-.85.35c-.15-.09-.34-.37-.6-.72-.22-.35-.49-.43-.92-.26l-.37.15.55 1.37Zm-.75-1.94.37-.15c.43-.17.73-.46.58-.81-.12-.31-.43-.43-.93-.23-.14.06-.28.13-.42.22l.4.97Z" fill="#fff"/></svg>
