<svg width="30" height="30" fill="none" xmlns="http://www.w3.org/2000/svg"><path fill-rule="evenodd" clip-rule="evenodd" d="M15 0c-4.07 0-4.58.02-6.18.09C3.37.34.34 3.36.09 8.81.02 10.41 0 10.93 0 15s.02 4.59.09 6.18c.25 5.45 3.27 8.48 8.72 8.73 1.6.07 2.12.09 6.19.09s4.59-.02 6.18-.09c5.45-.25 8.48-3.27 8.73-8.73.07-1.6.09-2.1.09-6.18 0-4.07-.02-4.58-.09-6.18-.25-5.45-3.27-8.48-8.72-8.73C19.59.02 19.07 0 15 0Zm0 2.7c4 0 4.48.02 6.06.1 4.07.18 5.97 2.1 6.15 6.14.07 1.58.09 2.06.09 6.06 0 4-.02 4.48-.09 6.06-.18 4.03-2.08 5.97-6.15 6.15-1.58.07-2.05.09-6.06.09-4 0-4.48-.02-6.06-.09-4.08-.18-5.96-2.12-6.15-6.15-.07-1.58-.09-2.05-.09-6.06 0-4 .02-4.48.09-6.06.19-4.03 2.08-5.96 6.15-6.15C10.52 2.72 11 2.7 15 2.7ZM7.3 15a7.7 7.7 0 1 1 15.4 0 7.7 7.7 0 0 1-15.4 0Zm7.7 5a5 5 0 1 1 0-10 5 5 0 0 1 0 10Zm6.2-13a1.8 1.8 0 1 1 3.6 0 1.8 1.8 0 0 1-3.6 0Z" fill="currentColor"/></svg>
