<svg width="371" height="371" fill="none" xmlns="http://www.w3.org/2000/svg"><path fill-rule="evenodd" clip-rule="evenodd" d="M287.61 129.5c-12.48-3.98-25.49-4.91-38.42-6.3 4.12-.92 8.58-2.13 12.78-2.6 3.86-.42 6.16 1.17 9.8 2.44a221.9 221.9 0 0 1 19.37 7.64c-1.17-.41-2.35-.8-3.53-1.18Zm-17.77 4.96c-13.7-2.56-27.7-3.11-41.38-5.79 3.39-1.03 5.31-1.94 8.91-1.6 5.36.51 10.78 1.61 16 2.78 7.6 1.69 15.26 3.51 22.66 5.91a147 147 0 0 0-6.2-1.3Zm.66 2.67c-.94.38-4.22-.9-5.29-1.13 1.03.2 4.69 1.38 5.29 1.13Zm-27.26-.28c-10.72-.67-21.56-1-32.29-.95 1.93-.72 3.77-1.62 5.64-2.46 5.14-2.3 6.03-1.94 11.15-.43 6.61 1.96 13.38 3.07 20.16 4.2-1.55-.15-3.1-.27-4.66-.36Zm-12.5 6.18c-14.8 1.12-29.38 2.91-44.15 4.57 3.15-1.28 6.19-2.9 9.2-4.46 4.64-2.41 8.21-2.07 13.4-2.07 5.5 0 10.9.64 16.37 1.26 1.35.16 6.64.59 5.18.7Zm-22.8-11.24a171.1 171.1 0 0 1 26.24-20.78c5.9-3.8 12.3-8.08 19.22-4.79-11.45.48-26.4 10.86-33.18 19.76-.32.42-.82.71-1.16 1.13-1.27 1.54.11 1.7-.75 2.66-.1.11-4.73 2-4.11 1.75-3.14 1.3-6.35 2.38-9.5 3.65 1.07-1.14 2.15-2.27 3.25-3.38ZM252 113.42c-7.78 6.5-16.2 9.96-25.57 13.22 8.55-5.5 17.12-10 26.52-13.93l-.95.71Zm9.67 2.23c1.62-.52 2.34-.38 2.7 1.54-4.19-.16-6.17.42-10.13 1.38a57.54 57.54 0 0 1 7.43-2.92Zm5.13 1.05c-.29-.53-.41-1.54-.62-2.05 3.11-.05 5.75.6 8.4 2.23-.88.01-7.56.79-7.78-.18Zm-126.03 72.15c22.72-2.8 44.51-3.54 67.33-1.31-17.19 1.5-34.45 4.96-51.37 8.31-13.58 2.7-27.35 4.15-40.97 6.58 2.52-2.62 4.88-5.4 7.45-8 4.47-4.5 11.16-4.78 17.56-5.58Zm78.12 6.7c4.1-.43 8.2-.94 12.27-1.54 4.44-.65 11.51-3.57 15.97-2.7-24.36 7.24-50.69 10.57-75.73 14.65a229.5 229.5 0 0 0-31.1 7.31c-14.56 4.54-30.99 4.52-44.88 10.89 4.25-4.45 8.9-10.83 13.74-14.45 3.52-2.63 9.36-2.85 13.55-3.4 6.9-.91 13.82-1.62 20.73-2.37 25.16-2.7 50.28-5.77 75.45-8.4ZM91.48 219.66a189.8 189.8 0 0 0-5.97 6.9c3.51-16.47 3.35-33.83 5.33-50.54 1.12-9.44 2.17-19 3.67-28.38 1.33-8.3 1.68-19.58 6.13-26.74 3.31 3.08 5.76 6.34 5.1 10.82-.84 5.76-3.32 11.3-4.48 17a257.5 257.5 0 0 0-2.97 19.46c-1.23 9.99-1.52 20.16-1 30.2a309 309 0 0 0 .55 8.47c.1 1.23.74 3.33.46 4.48-.66 2.82-4.68 5.96-6.82 8.33Zm24.5-68.53c1.95-9.25 3.13-20 7.19-28.67 2.25-4.82 4.4-6.53 7.77-1.33 2.4 3.72-1.37 11.87-2.56 16.54-3.37 13.24-5.14 26.83-7.37 40.3-.58 3.53-.76 7.02-1.13 10.55-.31 2.93-.23 2.76-1.92 4.96-1.09 1.43-2.8 2.64-4.1 3.89-3.43 3.27-6.91 6.5-10.3 9.82 5.16-18.47 8.48-37.32 12.42-56.06Zm254.02 42a62.68 62.68 0 0 0-11.15-11.13c-5.63-4.45-12.52-7.06-18.13-11.35-4.72-3.61-8.63-8.41-13.45-12.07-7.67-5.8-15.56-10.63-24.54-14.11 11.44 3.9 22.4 8.6 31.56 16.7.78.68 7.49 9.27 8.88 8.45.94-.56-3.08-6.77-3.92-8.22-6.19-10.65-18.9-17.46-28.93-24.3-11.34-7.72-23.72-12.06-36.63-16.33 11.73.65 21.62 3.66 31.45 10.27 4.83 3.24 9.3 7.03 14.3 10.05 4.4 2.67 8.65 5.13 12.47 8.72 4.27 4.02 7.7 8.4 10.53 13.53 1.07 1.94 6.27 13.63 6.4 6.2.08-3.66-4.54-8.88-6.41-11.52a100.08 100.08 0 0 0-10.65-12.35c-6.51-6.6-12.73-13.44-20.46-18.64a58.03 58.03 0 0 0-26-9.7c-3.87-.44-4.24-.4-7.32-2.4-2.65-1.72-4.9-3.56-7.87-4.78-3.02-1.26-5.59-1.44-7.84-3.14-2.65-2.02-3.67-4.4-7.1-5.66-3.14-1.16-6.35-.9-9.63-.64-10.85.86-21.86 3.61-30.84 10.03-7.93 5.67-13.32 14.72-17.16 23.55-2.11 4.87-.68 4.68-6.36 7.48-5.98 2.95-11.92 5.84-17.73 9.12 9.58-11.91 17.92-25.1 28.43-36.28 5.62-5.96 11.13-12.02 16.75-17.99 1.66-1.75 14.76-14.4 7.4-13.96-1.7.1-4.26 2.38-5.82 3.13-3.12 1.5-6.22 2.82-9.1 4.78-5 3.4-9.09 7.61-13.18 12-10.6 11.38-20.14 23.55-25.03 38.48-1.16 3.53-1.58 7.52-3.4 10.76-1.27 2.29-2.77 3.08-5.37 4.77-4.44 2.9-8.77 5.87-12.98 9.1 10.77-15.95 17.72-33.8 26.2-50.99 10.93-22.08 15.92-46.87 25.1-69.7 1.79-4.42 3.96-9.3 6.94-13.06.91-1.15 3.79-2.86 4.04-4.31.66-3.81-1.92-2.79-3.82-1.7-4.64 2.7-9.15 8.75-12.32 12.83A229.35 229.35 0 0 0 184 57.54c-13.79 22.03-22.93 47.04-30.52 71.79-3.57 11.63-7.26 23.46-9.01 35.52-.85 5.83.11 5.99-4.76 9.97-5.08 4.17-9.94 8.59-14.98 12.8 4.6-9.44 7.33-21.15 10.65-31.16 3.47-10.49 7.42-20.81 10.95-31.29 5.74-17.04 10.04-34.49 14.17-51.97 2.2-9.3 4.25-18.6 6.13-27.96 2.42-12.03 4.88-25.92 10.27-37.02.8-1.65 4.07-9.32-.65-6.67-2.17 1.2-4.74 9.1-5.84 11.24a324.7 324.7 0 0 0-16.26 37.16c-8.35 22.65-14.22 45.87-20.84 69.03-3.31-4.52-10.18-9.5-16.12-7.57-5.34 1.73-7.96 9.32-9.64 14.08-.19-3.3-4.22-9.43-7.37-9.64-1.79-.12-4.87 1.58-6.37 2.28-3.7 1.75-7.9 3.96-10.2 7.4-4.73 7.06-3.83 18.14-4.67 26.3-2.5 24.37-2.05 47.9.7 72.16.63 5.55 1.4 8.13-1.77 12.5-3.6 5-7.08 9.92-10.64 14.61 1.14-2.17.11-8.81.1-11.13-.04-6.21.03-12.37.35-18.57.66-12.78-.03-26-.67-38.78-1.33-26.35-1.2-52.36-.32-78.7.19-5.55.06-11.07.03-16.62-.01-2.29.74-7.9-2.9-6.56-1.05.4-1.83 4.49-2.13 5.53-2.84 9.58-3.73 19.94-5.03 29.77a562.5 562.5 0 0 0-3 26.9c-1.44 17.27-.96 34.04-.87 51.34a233.49 233.49 0 0 0 4.25 42.9c1.23 6.16 3.38 12.82 4 19.03.39 3.75-1.8 5.13-4.32 8.53-2.54 3.44-5.06 6.9-7.48 10.42.23-5.4-1.3-10.97-1.67-16.36-.3-4.51-.59-9-1-13.5l-.93-10.64c-1.62-18.27-3.2-36.5-6.2-54.6-4.59-27.8-9.6-56.36-9.42-84.64.04-5.4.21-10.8.28-16.19.04-4.07-.33-8.1-.35-12.17-.02-2.07.93-6.08.24-8.14-2-5.97-3.74.7-3.8 3.44-.02 1.45-.1 2.9-.13 4.34-.13 9.08-.91 18.03-1.36 27.1-.64 13.08-.07 26.09.36 39.16.48 14.23.12 28.57 1.65 42.75 1.98 18.29 5.93 36.46 8.41 54.7 1.08 7.94 2.59 15.8 3.4 23.77.76 7.46 3.41 14.79 5.02 21.68v-.53c.62 2.93 1.6 4.39.7 7.08-.62 1.88-2.34 3.87-3.37 5.6-2.2 3.69-4.3 7.42-6.42 11.16 1.87-9.49-.66-21.46-2.67-30.78a347.84 347.84 0 0 0-8.09-30.93c-2.46-7.82-4.5-15.51-5.24-23.65-.99-10.84-3.94-21.27-5.52-32.01-1.5-10.14-4.02-20.19-6.16-30.22-.49-2.26-2.65-13.07-6.16-8.2-.86 1.2.2 4.4.33 5.64.34 3.08.55 6.11.68 9.2.9 19.64 5.01 39.57 8.23 58.9 2.06 12.37 4.24 24.77 7.25 36.93 2.35 9.47 3.61 19.31 6.21 28.65 1.25 4.48 2.51 9.06 4.5 13.26 1.74 3.66 3.49 4.68 2.88 8.63-.88 5.63-5.68 11.49-7.85 16.95-1.77 4.46-3.57 8.93-5.26 13.42-2.36 6.3-4.57 12.7-6.64 19.1-1.2 3.7-3.53 8.49-3.75 12.25-.33 5.73 2.9 4.09 4.61.26 1.14-2.57 2.06-5.35 3.13-7.96 7.9-19.2 15.13-39.77 26.92-57 4.92-7.18 18.51-8.92 26.49-11.42 19.19-6.04 39.94-6.84 59.85-9.04 16.06-1.78 31.85-3.41 47.56-7.36 2.3-.58 44.2-12.91 43.14-15.06.59 1.2-45.83 11.53-49.55 11.84-11.65.95-23.28 1.2-34.96 1.7-29.22 1.24-57.96 1.94-84.52 15.75 3.36-5.27 7.36-15.22 13.24-17.26 11.34-3.94 23.29-6.49 34.7-10.32 11.88-4 24.07-6.66 36.01-10.35 11.93-3.7 23.83-7.52 35.94-10.62 12.17-3.12 24.75-6.37 37.4-5.97 4.86.16 9.75.59 14.6 1.04 1.82.18 16.4 2.87 8.52-.47-5.1-2.17-11.79-2.34-17.25-3.14-6.27-.9-12.28-1.71-18.61-1.66-13.8.1-27.65 3.34-40.99 6.54-15.95 3.82-32.56 7.62-47.8 13.78-13.96 5.65-27.99 11.07-41.95 16.64 2.54-3.88 5.24-7.65 7.88-11.47 1.28-1.86 2.64-4.87 4.46-6.14 2.78-1.94 8.63-2.44 11.85-3.51 13-4.32 26.04-9.4 39.36-12.6 21.4-5.18 43.31-8.38 64.84-12.98 12.57-2.68 25.88-5.05 38.73-4.82 4.84.09 9.68-.09 14.43.93 1.67.36 3.79 1.3 5.52 1.49 5.17.58 1.33-1.91-1.8-3-24.89-8.61-52.3-1.72-77.39 1.78-16.58 2.31-32.95 4.68-48.79 10.38-14.6 5.26-28.54 12.27-43.37 16.88 3.88-5.52 7.35-11.24 13.56-14.28 6.88-3.37 14.12-4.83 21.62-6.1 15.6-2.66 31.1-6.06 46.74-8.38 14.37-2.12 28.72-4 42.97-6.9 13.87-2.83 27.67-4.48 40.9-9.82 4.2-1.69 9.28-4.62 13.76-4.88 5.8-.33 12.83 1.41 18.52 2.27 13.85 2.1 28.23 4.26 41.04 10.12 12.57 5.76 21.1 14.8 30.73 24.26 3.03 2.98 6.01 6.02 9.03 9.01.67.67 4.7 5.68 5.52 5.74 5.12.38-4.54-9.77-6.21-11.85-11.53-14.38-24-26.38-40.96-34.21a160.96 160.96 0 0 0-45.32-13.25c.04-2.85 11.65-2.99 11.97-5.94.42-3.94-7.7 0-9.31.49-3.06.92-6.04 2.06-9.1 2.93-7.06 2-14.87-.46-22.04-1.38-8.64-1.1-17.4-1.83-26.09-2.35-28.77-1.74-56.37-.78-84.31 6.93 5.01-4.4 10.24-8.57 15.54-12.61 2.06-1.57 3.64-3.01 5.97-3.75 3.95-1.25 8.64-.7 12.76-1.1 16.27-1.58 32.47-3.37 48.83-3.87 26.93-.82 55 4 80.54 12.57 12.45 4.18 24.68 8.24 35.5 15.93 2.5 1.78 4.72 3.82 7 5.87.94.85 6.69 7.03 6.98 7 2.49-.27-9.06-13.06-10.74-14.69-22.56-21.93-51.84-26.91-81.73-31.31-31.26-4.61-62.64-2.16-93.44 4.78 6.15-3.83 12.2-10.4 19.1-12.64 5.25-1.7 11.9-1.37 17.2-1.92 15.4-1.58 31.53 1.1 46.95 2.2 17.42 1.23 34.34 3.47 51.18 8.1a320.1 320.1 0 0 1 25.42 7.98c6.67 2.44 12.1 3.95 17.5 8.41 2.17 1.82 8.64 6.65 12.14 9.93 1.43 1.34 2.9 4.17 4.52 4.85 6.01 2.5-1.96-7.29-3.27-8.99 4.77 2.86 9.24 6.16 13.48 9.68.84.7 1.64 1.23 2.49 1.87 1 .75 1.52 2.94 3.23 2.21 1.39-.6.9-2.03.23-2.94Z" fill="#012A32"/></svg>